<?xml version="1.0" standalone="no"?>
<!DOCTYPE svg PUBLIC "-//W3C//DTD SVG 20010904//EN"
 "http://www.w3.org/TR/2001/REC-SVG-20010904/DTD/svg10.dtd">
<svg version="1.0" xmlns="http://www.w3.org/2000/svg"
 width="387.000000pt" height="387.000000pt" viewBox="0 0 387.000000 387.000000"
 preserveAspectRatio="xMidYMid meet">
<metadata>
Created by potrace 1.14, written by Peter Selinger 2001-2017
</metadata>
<g transform="translate(0.000000,387.000000) scale(0.100000,-0.100000)"
fill="#000000" stroke="none">
<path d="M1978 2630 c-9 -6 -74 -76 -144 -156 l-126 -145 23 -25 c20 -21 21
-27 9 -34 -28 -18 -42 -10 -137 75 -52 47 -101 85 -107 85 -7 0 -21 -7 -32
-15 -25 -19 -34 -19 -34 1 0 9 -6 14 -12 11 -7 -2 -78 -25 -158 -51 -80 -26
-162 -54 -182 -63 l-38 -16 0 -94 0 -95 30 7 c22 5 30 3 30 -8 0 -10 -16 -16
-53 -20 -44 -4 -89 -19 -139 -45 -5 -2 -8 23 -8 56 0 113 -82 217 -205 259
-76 26 -238 23 -340 -6 -120 -34 -287 -122 -338 -178 -17 -20 -15 -24 64 -157
86 -143 82 -139 134 -119 6 2 55 -99 110 -224 154 -354 154 -353 179 -353 29
0 217 63 256 86 36 22 37 35 10 129 -11 38 -20 71 -20 73 0 2 12 -11 27 -29
15 -17 50 -42 78 -55 80 -38 170 -29 251 26 l42 28 5 -40 c3 -22 7 -42 10 -44
9 -10 246 35 271 51 24 16 26 23 26 86 0 38 2 69 5 69 3 0 95 -45 205 -100
110 -55 206 -100 214 -100 8 0 27 5 41 12 24 11 25 14 25 115 0 81 3 103 14
103 7 0 44 15 81 34 l67 34 -6 -67 c-4 -36 -11 -97 -17 -134 -6 -38 -9 -71 -6
-73 17 -17 136 -37 232 -37 139 -2 230 23 296 81 l43 39 21 -31 c32 -48 96
-91 173 -115 58 -19 87 -22 172 -19 88 3 104 6 117 23 15 20 15 20 30 -2 9
-13 21 -23 27 -23 6 0 45 48 86 106 l74 106 201 -207 c151 -157 205 -207 220
-204 17 3 26 27 56 149 21 80 37 159 37 175 1 26 -17 46 -153 164 l-155 134
28 17 c15 9 64 36 110 61 45 24 82 47 82 52 0 5 -41 78 -92 164 l-91 155 -40
-5 c-22 -3 -43 -9 -46 -14 -4 -4 -36 -36 -72 -71 l-66 -63 -63 98 c-35 54 -64
99 -64 100 -6 9 -271 -98 -291 -117 -24 -23 -25 -27 -19 -102 l7 -78 -62 0
c-57 0 -61 1 -61 23 0 13 -7 46 -15 74 -33 111 -160 203 -327 237 -93 19 -288
20 -338 2 -32 -12 -35 -16 -35 -54 0 -23 -1 -42 -1 -42 -1 0 -18 7 -37 15 -20
8 -48 15 -62 15 -14 0 -25 3 -25 8 0 4 36 27 80 51 44 25 80 50 80 58 0 24
-113 193 -129 193 -9 0 -24 -5 -33 -10z m-58 -517 c-1 -5 -16 -26 -35 -48
l-35 -40 0 37 c0 25 6 40 18 47 20 12 52 14 52 4z m1115 -64 c11 -17 2 -18
-25 -4 -24 14 -24 14 -3 15 12 0 25 -5 28 -11z m-1408 -56 c-4 -3 -18 -2 -33
1 l-27 7 24 25 24 25 8 -26 c5 -14 7 -29 4 -32z m-989 35 c14 -14 16 -68 3
-68 -8 0 -31 52 -31 71 0 13 14 11 28 -3z m1820 -172 c5 -25 -6 -66 -18 -66
-6 0 -10 21 -10 46 0 32 4 44 13 42 6 -3 14 -13 15 -22z m462 -11 c10 -12 8
-16 -15 -25 -30 -11 -65 -13 -65 -3 0 14 34 43 50 43 10 0 23 -7 30 -15z"/>
</g>
</svg>
